<svg width="201" height="105" viewBox="0 0 201 105" fill="none" xmlns="http://www.w3.org/2000/svg"> <g clip-path="url(#clip0_2601_7279)"> <path d="M165.709 32.4253V0.23999L149.617 16.3387L165.709 32.4253Z" fill="#49C7ED"/> <path d="M133.512 0.23999V32.4253L149.616 16.3387L133.512 0.23999Z" fill="#0099D8"/> <path d="M199.719 0.23999H167.523L183.627 16.3387L199.719 0.23999Z" fill="#49C7ED"/> <path d="M167.523 0.23999V32.4253L183.627 16.3387L167.523 0.23999Z" fill="#0099D8"/> <path d="M199.721 66.4263V34.241L183.629 50.3397L199.721 66.4263Z" fill="#0099D8"/> <path d="M183.627 50.3269L167.523 66.4256H199.719L183.627 50.3269Z" fill="#49C7ED"/> <path d="M167.523 34.241V66.4263L183.627 50.3276L167.523 34.241Z" fill="#0099D8"/> <path d="M165.708 34.241H133.512L149.616 50.3276L165.708 34.241Z" fill="#0099D8"/> <path d="M133.512 34.241V66.4263L149.616 50.3276L133.512 34.241Z" fill="#49C7ED"/> <path d="M191.425 28.9876H170.974L167.523 32.4252H199.719L183.627 16.3386L181.194 18.7595L191.425 28.9876Z" fill="#11034C"/> <path d="M157.413 28.9876H136.963L133.512 32.4252H165.708L149.616 16.3386L147.182 18.7595L157.413 28.9876Z" fill="#11034C"/> <path d="M157.413 62.9876H136.963L133.512 66.4252H165.72L149.616 50.3386L147.182 52.7595L157.413 62.9876Z" fill="#11034C"/> <path d="M196.28 62.988H170.974L167.523 66.4257H199.719L196.28 62.988Z" fill="#11034C"/> <path d="M183.619 68.2409L181.188 70.6716L183.619 73.1024L186.051 70.6716L183.619 68.2409Z" fill="#11034C"/> <path d="M160.314 47.9L157.883 50.3308L160.314 52.7616L162.746 50.3308L160.314 47.9Z" fill="#11034C"/> <path d="M183.627 34.254L181.195 36.6843L183.626 39.1155L186.058 36.6852L183.627 34.254Z" fill="#11034C"/> <path d="M5.87962 50.7277V46.8907H2.77991V50.7277H1V41.5769H2.77991V45.3171H5.87962V41.5769H7.67164V50.7277H5.87962Z" fill="#11034C"/> <path d="M12.8695 44.2762L11.7071 47.6048H13.9835L12.8695 44.2762ZM15.0006 50.7277L14.4678 49.1058H11.2107L10.6537 50.7277H8.78906L12.1188 41.5769H13.5234L16.8653 50.7277H15.0006Z" fill="#11034C"/> <path d="M24.5021 50.7277V45.3898L22.7585 48.8637H21.5477L19.7799 45.3898V50.7277H18V41.5769H19.7557L22.1531 46.5276L24.5263 41.5769H26.282V50.7277H24.5021Z" fill="#11034C"/> <path d="M31.4867 44.2762L30.3243 47.6048H32.6007L31.4867 44.2762ZM33.6178 50.7277L33.0729 49.1058H29.8158L29.2709 50.7277H27.4062L30.736 41.5769H32.1406L35.4824 50.7277H33.6178Z" fill="#11034C"/> <path d="M41.0894 43.7303C40.7867 43.355 40.375 43.1614 39.7575 43.1614H38.4014V49.1167H39.7575C40.375 49.1167 40.7867 48.923 41.0894 48.5478C41.4285 48.1362 41.4769 47.4826 41.4769 46.0906C41.4769 44.6986 41.4285 44.1297 41.0894 43.7182M42.3366 49.8308C41.7312 50.4361 40.8715 50.7024 39.9149 50.7024H36.6094V41.5515H39.9149C40.8715 41.5515 41.7312 41.8178 42.3366 42.423C43.3658 43.4519 43.2568 44.7107 43.2568 46.0906C43.2568 47.4705 43.3658 48.802 42.3366 49.8308Z" fill="#11034C"/> <path d="M52.0239 46.878H50.1592V49.1294H52.0239C52.8351 49.1294 53.2226 48.621 53.2226 47.9916C53.2226 47.3622 52.8351 46.878 52.0239 46.878ZM51.9028 43.162H50.1592V45.2681H51.9028C52.6535 45.2681 53.0894 44.8445 53.0894 44.2151C53.0894 43.5856 52.6656 43.162 51.9028 43.162ZM52.1934 50.7151H48.3672V41.5642H52.0481C53.828 41.5642 54.8693 42.5689 54.8693 44.1303C54.8693 45.1471 54.2034 45.8007 53.7432 46.0186C54.3002 46.2728 55.0025 46.8538 55.0025 48.0763C55.0025 49.783 53.828 50.703 52.2055 50.703" fill="#11034C"/> <path d="M58.6241 41.5769H56.832V50.7277H58.6241V41.5769Z" fill="#11034C"/> <path d="M66.1542 50.7277L62.5338 45.1114V50.7277H60.7539V41.5769H62.3401L65.9726 47.1812V41.5769H67.7525V50.7277H66.1542Z" fill="#11034C"/> <path d="M78.1909 50.7277L75.8298 46.5639L74.6553 47.968V50.7277H72.8633V41.5769H74.6553V45.5592L77.8761 41.5769H80.0556L77.0164 45.2082L80.2735 50.7277H78.1909Z" fill="#11034C"/> <path d="M86.2937 50.7277V46.8907H83.2061V50.7277H81.4141V41.5769H83.2061V45.3171H86.2937V41.5769H88.0857V50.7277H86.2937Z" fill="#11034C"/> <path d="M93.2879 44.2762L92.1255 47.6048H94.4019L93.2879 44.2762ZM95.4189 50.7277L94.8741 49.1058H91.617L91.06 50.7277H89.1953L92.5251 41.5769H93.9296L97.2715 50.7277H95.4068H95.4189Z" fill="#11034C"/> <path d="M98.4141 50.7277V41.5769H100.206V49.13H104.347V50.7277H98.4141Z" fill="#11034C"/> <path d="M107.589 41.5769H105.797V50.7277H107.589V41.5769Z" fill="#11034C"/> <path d="M111.499 43.1626V45.414H115.119V47.0117H111.499V50.7277H109.719V41.5769H115.749V43.1626H111.499Z" fill="#11034C"/> <path d="M120.373 44.2762L119.211 47.6048H121.487L120.373 44.2762ZM122.504 50.7277L121.96 49.1058H118.715L118.158 50.7277H116.293L119.623 41.5769H121.027L124.369 50.7277H122.504Z" fill="#11034C"/> <path d="M57.2177 66.4869C55.3409 66.4869 53.8516 65.216 53.8516 63.2793V57.2634H55.6436V63.2066C55.6436 64.2597 56.2611 64.8891 57.2298 64.8891C58.1984 64.8891 58.828 64.2597 58.828 63.2066V57.2634H60.5958V63.2793C60.5958 65.216 59.1065 66.4869 57.2298 66.4869" fill="#11034C"/> <path d="M67.9827 66.4022L64.3623 60.7979V66.4022H62.5703V57.2634H64.1686L67.789 62.8556V57.2634H69.581V66.4022H67.9827Z" fill="#11034C"/> <path d="M73.503 57.2634H71.7109V66.4143H73.503V57.2634Z" fill="#11034C"/> <path d="M78.9523 66.4022H77.6204L74.6055 57.2634H76.4459L78.2864 63.2187L80.1268 57.2634H81.9915L78.9523 66.4022Z" fill="#11034C"/> <path d="M83.0938 66.4022V57.2634H89.1237V58.8491H84.8737V61.0037H88.494V62.5893H84.8737V64.8165H89.1237V66.4022H83.0938Z" fill="#11034C"/> <path d="M94.3458 58.8485H92.6627V61.2694H94.3458C95.1328 61.2694 95.6413 60.7731 95.6413 60.0589C95.6413 59.3448 95.1328 58.8485 94.3458 58.8485ZM95.7382 66.4016L93.9462 62.7582H92.6627V66.4016H90.8828V57.2507H94.4668C96.3315 57.2507 97.4334 58.5217 97.4334 60.0468C97.4334 61.3299 96.6463 62.1288 95.7624 62.4556L97.8087 66.4016H95.7382Z" fill="#11034C"/> <path d="M101.787 66.4865C100.395 66.4865 99.3413 66.196 98.4453 65.276L99.6077 64.114C100.189 64.695 100.964 64.8887 101.811 64.8887C102.865 64.8887 103.434 64.4893 103.434 63.7509C103.434 63.4362 103.349 63.1578 103.155 62.9762C102.974 62.8068 102.768 62.722 102.344 62.6494L101.242 62.492C100.455 62.371 99.8862 62.1289 99.4745 61.7295C99.0386 61.2937 98.8207 60.7006 98.8207 59.9259C98.8207 58.2918 100.031 57.1541 102.005 57.1541C103.264 57.1541 104.173 57.4567 104.96 58.2192L103.821 59.3328C103.24 58.776 102.55 58.7034 101.945 58.7034C100.988 58.7034 100.528 59.236 100.528 59.8654C100.528 60.0954 100.601 60.3375 100.794 60.519C100.976 60.6885 101.267 60.8338 101.642 60.8822L102.72 61.0395C103.555 61.1606 104.088 61.3905 104.463 61.7416C104.947 62.2015 105.165 62.8673 105.165 63.6783C105.165 65.4455 103.688 66.4502 101.775 66.4502" fill="#11034C"/> <path d="M108.651 57.2634H106.859V66.4143H108.651V57.2634Z" fill="#11034C"/> <path d="M114.287 58.8491V66.4022H112.495V58.8491H110.109V57.2634H116.672V58.8491H114.287Z" fill="#11034C"/> <path d="M121.622 62.6498V66.4022H119.842V62.6498L117.094 57.2634H119.031L120.738 60.9431L122.421 57.2634H124.371L121.622 62.6498Z" fill="#11034C"/> <path d="M19.4287 29.7746C18.339 29.1452 17.6004 27.9105 17.7941 26.7848C17.9031 25.9859 18.5691 25.3807 19.4287 25.3807C20.2884 25.3807 20.9181 25.998 21.0512 26.7848C21.2571 27.9226 20.5185 29.1331 19.4287 29.7746ZM6.20654 30.283H4.83831C3.88176 30.283 3.28846 29.1936 3.28846 28.1405C3.28846 27.2085 3.56695 25.7802 4.83831 25.7802H6.20654V30.283ZM48.8639 23.7103L47.3503 25.2234L52.3874 30.283H41.4657V18.2029L39.2984 20.309V30.2709H32.4209V23.6982L30.2656 25.8044V30.2709H22.1289C22.9522 29.3509 23.5819 28.0316 23.376 26.688C23.1339 24.9571 21.8141 23.444 19.4287 23.444C17.0434 23.444 15.7236 24.9571 15.4451 26.688C15.2635 28.0316 15.8689 29.363 16.7165 30.2709H8.50711V23.7224H4.71723C2.35612 23.7224 1 25.1629 1 28.1284C1 31.2997 3.11894 32.4254 4.71723 32.4254H57.5697L48.876 23.7103H48.8639Z" fill="#11034C"/> <path d="M49.1092 19.3559L47.5938 20.8708L49.0835 22.3601L50.5989 20.8452L49.1092 19.3559Z" fill="#11034C"/> <path d="M33.0076 33.6655L31.4922 35.1804L32.9819 36.6697L34.4974 35.1547L33.0076 33.6655Z" fill="#11034C"/> <path d="M30.0037 33.6704L28.4883 35.1853L29.978 36.6746L31.4935 35.1596L30.0037 33.6704Z" fill="#11034C"/> <path d="M19.4608 19.3637L17.9453 20.8787L19.4351 22.3679L20.9505 20.853L19.4608 19.3637Z" fill="#11034C"/> <path d="M7.01544 19.3627L5.5 20.8777L6.98975 22.367L8.5052 20.852L7.01544 19.3627Z" fill="#11034C"/> <path d="M4.00763 19.3549L2.49219 20.8699L3.98194 22.3591L5.49738 20.8442L4.00763 19.3549Z" fill="#11034C"/> <path d="M82.8121 9.57326C82.8848 8.43545 83.9382 7.39448 85.4517 7.4429C86.9774 7.455 87.9581 8.47176 88.0308 9.57326L85.4275 11.8852C84.8342 11.401 83.4781 10.1906 82.8121 9.57326ZM71.6241 12.2241H70.2559C69.2993 12.2241 68.706 11.1347 68.706 10.0816C68.706 9.1496 68.9845 7.7334 70.2559 7.7334H71.6241V12.2362V12.2241ZM101.168 7.03135C102.113 7.03135 102.73 7.70919 102.73 9.77903C102.73 11.7036 102.101 12.3936 101.168 12.3936C100.236 12.3936 99.6184 11.7278 99.6184 9.76692C99.6184 7.80603 100.248 7.04346 101.168 7.04346M95.8043 14.3787C96.9788 14.2939 97.9474 13.8945 98.4197 12.9988C99.013 13.9913 100.018 14.3787 101.168 14.3787C103.699 14.3787 105.091 12.5509 105.091 9.73061C105.091 6.91031 103.675 5.05835 101.168 5.05835C98.8677 5.05835 97.3784 6.68033 97.2452 9.1496C97.1967 10.3842 97.2452 12.2362 95.2957 12.2362H88.1519L90.4888 10.1785C90.4888 7.51553 88.5878 5.39727 85.4275 5.39727C82.2673 5.39727 80.3663 7.50342 80.3663 10.1785L82.6911 12.2362H73.9368V5.68777H70.1469C67.7858 5.68777 66.4297 7.12818 66.4297 10.0937C66.4297 13.2651 68.5486 14.3908 70.1469 14.3908H95.8285L95.8043 14.3787Z" fill="#11034C"/> <path d="M124.285 14.3776L115.615 5.74722L114.102 7.26025L119.102 12.223H109.815V0.155029L107.66 2.26118V14.3776H124.285Z" fill="#11034C"/> <path d="M117.14 15.6132L115.625 17.1287L117.115 18.6174L118.63 17.1019L117.14 15.6132Z" fill="#11034C"/> <path d="M104.027 31.8688C103.094 31.8688 102.465 31.2151 102.465 29.2906C102.465 27.366 103.094 26.6639 104.027 26.6639C104.959 26.6639 105.589 27.3176 105.589 29.3511C105.589 31.203 104.959 31.8688 104.027 31.8688ZM115.639 23.6984L114.125 25.2114L119.186 30.271H109.645C108.507 30.271 107.95 29.8958 107.95 29.109C107.95 26.6639 106.582 24.6667 104.027 24.6667C101.472 24.6667 100.176 26.3976 100.031 29.109C99.9342 30.2226 98.8566 30.2105 97.9485 30.271H92.0033V23.6984L89.8481 25.8045V30.271H85.9492V32.4135H98.6144C99.3651 32.4135 100.067 32.2803 100.649 32.0019C101.278 33.2487 102.465 33.9749 104.039 33.9991C105.661 33.9991 106.824 33.2366 107.453 31.9051C108.156 32.2682 108.979 32.3772 109.778 32.4014L124.381 32.4135L115.651 23.6863L115.639 23.6984Z" fill="#11034C"/> <path d="M80.8186 32.425V23.7341L78.6512 25.8403V30.3068H72.6698C71.4589 30.3068 70.5871 29.7258 70.5871 28.6969V23.7341H68.2624V31.8924C68.2624 33.0181 67.8023 33.6112 66.6399 33.6112C65.4775 33.6112 64.9568 33.0181 64.9568 31.8924V23.7341H62.6562V31.9529C62.6562 34.2164 64.2182 35.7658 66.3614 35.8021C66.5309 35.8263 66.6399 35.8021 66.8578 35.8021C69.0131 35.7658 70.575 34.2286 70.575 31.9772V31.9045C71.0715 32.2192 71.689 32.3887 72.3792 32.4371H80.7944L80.8186 32.425Z" fill="#11034C"/> <path d="M66.617 19.3696L65.1016 20.8845L66.5913 22.3738L68.1068 20.8588L66.617 19.3696Z" fill="#11034C"/> <path d="M79.7654 33.6645L78.25 35.1794L79.7398 36.6687L81.2552 35.1538L79.7654 33.6645Z" fill="#11034C"/> <path d="M72.8436 1.22504L71.3281 2.73999L72.8179 4.22926L74.3333 2.71431L72.8436 1.22504Z" fill="#11034C"/> <path d="M69.8358 1.21723L68.3203 2.73218L69.8101 4.22145L71.3255 2.7065L69.8358 1.21723Z" fill="#11034C"/> <path d="M159.885 103.804V100.693C159.885 100.136 159.728 99.6765 159.389 99.3375C159.086 99.047 158.662 98.8776 158.142 98.8776C157.621 98.8776 157.125 99.0712 156.774 99.4707V98.9381H156.059V103.804H156.774V100.814C156.774 99.967 157.246 99.5191 157.984 99.5191C158.723 99.5191 159.183 99.9549 159.183 100.814V103.804H159.897H159.885ZM154.025 101.371C154.025 101.916 154.001 102.521 153.637 102.872C153.407 103.102 153.093 103.235 152.741 103.235C152.39 103.235 152.088 103.102 151.858 102.872C151.506 102.521 151.458 101.916 151.458 101.371C151.458 100.826 151.494 100.221 151.858 99.8701C152.088 99.6401 152.39 99.5191 152.741 99.5191C153.093 99.5191 153.407 99.6522 153.637 99.8701C153.989 100.221 154.025 100.826 154.025 101.371ZM154.739 101.371C154.739 100.621 154.642 99.9427 154.146 99.4344C153.807 99.0954 153.347 98.8776 152.754 98.8776C152.16 98.8776 151.7 99.0954 151.361 99.4344C150.865 99.9306 150.768 100.621 150.768 101.371C150.768 102.122 150.865 102.799 151.361 103.308C151.7 103.647 152.16 103.865 152.754 103.865C153.347 103.865 153.807 103.647 154.146 103.308C154.642 102.799 154.739 102.122 154.739 101.371ZM149.436 98.9502H148.722V103.804H149.436V98.9502ZM149.484 96.7714H148.685V97.5703H149.484V96.7714ZM147.511 103.804V103.199H147.135C146.675 103.199 146.469 102.933 146.469 102.485V99.5191H147.511V98.9744H146.469V97.4493H145.755V98.9744H145.138V99.5191H145.755V102.509C145.755 103.235 146.167 103.816 147.002 103.816H147.511V103.804ZM143.394 102.085C143.394 102.485 143.321 102.763 143.152 102.92C142.849 103.211 142.486 103.247 142.062 103.247C141.287 103.247 140.948 102.981 140.948 102.412C140.948 101.843 141.299 101.553 142.038 101.553H143.406V102.073L143.394 102.085ZM144.108 103.804V100.5C144.108 99.4344 143.467 98.8776 142.159 98.8776C141.372 98.8776 140.875 99.0349 140.44 99.6038L140.924 100.052C141.214 99.6522 141.529 99.4949 142.147 99.4949C143.043 99.4949 143.394 99.8459 143.394 100.56V101.02H141.929C140.839 101.02 140.246 101.577 140.246 102.424C140.246 102.811 140.379 103.175 140.609 103.417C140.912 103.731 141.311 103.865 141.977 103.865C142.643 103.865 142.982 103.731 143.382 103.344V103.804H144.096H144.108ZM138.345 101.371C138.345 102.315 138.187 103.235 137.134 103.235C136.081 103.235 135.911 102.327 135.911 101.371C135.911 100.415 136.081 99.507 137.134 99.507C138.187 99.507 138.345 100.415 138.345 101.371ZM139.059 103.804V96.7714H138.345V99.507C137.945 98.9986 137.509 98.8897 136.964 98.8897C136.468 98.8897 136.032 99.0591 135.778 99.3133C135.281 99.8096 135.185 100.621 135.185 101.383C135.185 102.146 135.281 102.957 135.778 103.453C136.032 103.707 136.468 103.877 136.964 103.877C137.497 103.877 137.957 103.743 138.345 103.235V103.816H139.047L139.059 103.804ZM133.913 103.804V100.693C133.913 100.136 133.756 99.6765 133.417 99.3375C133.126 99.047 132.69 98.8776 132.17 98.8776C131.649 98.8776 131.152 99.0712 130.801 99.4707V98.9381H130.087V103.804H130.801V100.814C130.801 99.967 131.274 99.5191 132.012 99.5191C132.751 99.5191 133.211 99.9549 133.211 100.814V103.804H133.925H133.913ZM128.513 103.804V98.9502H127.799V101.94C127.799 102.787 127.314 103.235 126.588 103.235C125.861 103.235 125.401 102.799 125.401 101.94V98.9502H124.687V102.049C124.687 102.618 124.832 103.078 125.183 103.417C125.486 103.707 125.91 103.865 126.442 103.865C126.975 103.865 127.472 103.659 127.823 103.259V103.804H128.525H128.513ZM122.701 101.371C122.701 101.916 122.677 102.521 122.313 102.872C122.083 103.102 121.769 103.235 121.417 103.235C121.066 103.235 120.764 103.102 120.534 102.872C120.182 102.521 120.134 101.916 120.134 101.371C120.134 100.826 120.17 100.221 120.534 99.8701C120.764 99.6401 121.066 99.5191 121.417 99.5191C121.769 99.5191 122.083 99.6522 122.313 99.8701C122.665 100.221 122.701 100.826 122.701 101.371ZM123.415 101.371C123.415 100.621 123.318 99.9427 122.822 99.4344C122.483 99.0954 122.023 98.8776 121.43 98.8776C120.836 98.8776 120.376 99.0954 120.037 99.4344C119.541 99.9306 119.444 100.621 119.444 101.371C119.444 102.122 119.541 102.799 120.037 103.308C120.376 103.647 120.836 103.865 121.43 103.865C122.023 103.865 122.483 103.647 122.822 103.308C123.318 102.799 123.415 102.122 123.415 101.371ZM119.032 97.4372V96.7714H114.661V103.804H115.412V100.705H118.499V100.04H115.412V97.4493H119.032V97.4372ZM111.549 99.3375C111.198 98.9865 110.847 98.8776 110.387 98.8776C109.83 98.8776 109.297 99.1197 109.019 99.5312V98.9381H108.304V103.804H109.019V100.814C109.019 100.076 109.479 99.507 110.181 99.507C110.556 99.507 110.75 99.5917 111.029 99.858L111.549 99.3254V99.3375ZM106.064 102.085C106.064 102.485 105.979 102.763 105.822 102.92C105.519 103.211 105.156 103.247 104.732 103.247C103.957 103.247 103.618 102.981 103.618 102.412C103.618 101.843 103.969 101.553 104.708 101.553H106.076V102.073L106.064 102.085ZM106.779 103.804V100.5C106.779 99.4344 106.137 98.8776 104.829 98.8776C104.042 98.8776 103.546 99.0349 103.11 99.6038L103.594 100.052C103.885 99.6522 104.2 99.4949 104.817 99.4949C105.713 99.4949 106.064 99.8459 106.064 100.56V101.02H104.599C103.509 101.02 102.916 101.577 102.916 102.424C102.916 102.811 103.049 103.175 103.279 103.417C103.582 103.731 103.982 103.865 104.66 103.865C105.338 103.865 105.665 103.731 106.064 103.344V103.804H106.779ZM102.177 103.804V103.199H101.802C101.342 103.199 101.136 102.933 101.136 102.485V99.5191H102.177V98.9744H101.136V97.4493H100.422V98.9744H99.8043V99.5191H100.422V102.509C100.422 103.235 100.833 103.816 101.669 103.816H102.177V103.804ZM98.0728 102.085C98.0728 102.485 97.988 102.763 97.8306 102.92C97.5279 103.211 97.1526 103.247 96.7409 103.247C95.966 103.247 95.6269 102.981 95.6269 102.412C95.6269 101.843 95.9781 101.553 96.7167 101.553H98.0849V102.073L98.0728 102.085ZM98.7872 103.804V100.5C98.7872 99.4344 98.1454 98.8776 96.8377 98.8776C96.0507 98.8776 95.5543 99.0349 95.1184 99.6038L95.6027 100.052C95.8933 99.6522 96.2081 99.4949 96.8256 99.4949C97.7095 99.4949 98.0728 99.8459 98.0728 100.56V101.02H96.6077C95.5179 101.02 94.9246 101.577 94.9246 102.424C94.9246 102.811 95.0457 103.175 95.2879 103.417C95.5906 103.731 95.9902 103.865 96.6561 103.865C97.3221 103.865 97.6611 103.731 98.0607 103.344V103.804H98.7751H98.7872ZM93.1326 100.294C93.1326 101.419 93.1084 101.964 92.842 102.376L91.9823 101.516L91.5222 101.976L92.4182 102.872C92.1276 103.09 91.7886 103.211 91.4133 103.211C90.9531 103.211 90.5051 103.017 90.1903 102.703C89.7423 102.243 89.6939 101.77 89.6939 100.306C89.6939 98.8413 89.7423 98.3571 90.1903 97.8971C90.493 97.5824 90.941 97.3887 91.4133 97.3887C91.8855 97.3887 92.3214 97.5824 92.6362 97.8971C93.0842 98.3571 93.1326 98.8291 93.1326 100.306M94.1739 103.719L93.399 102.945C93.8833 102.339 93.8833 101.649 93.8833 100.306C93.8833 98.817 93.8833 98.115 93.2174 97.4614C92.7452 96.9893 92.1155 96.7351 91.4133 96.7351C90.711 96.7351 90.0813 96.9893 89.6091 97.4614C88.9432 98.1271 88.9432 98.817 88.9432 100.306C88.9432 101.795 88.9432 102.485 89.6091 103.15C90.0813 103.622 90.711 103.877 91.4133 103.877C91.9702 103.877 92.503 103.707 92.9268 103.38L93.7017 104.155L94.1618 103.695L94.1739 103.719ZM85.8435 99.5433V98.9986H84.8022V98.1029C84.8022 97.655 84.9959 97.3887 85.456 97.3887H85.8435V96.7714H85.3349C84.4994 96.7714 84.0999 97.3524 84.0999 98.0787V98.9986H83.4824V99.5433H84.0999V103.828H84.8143V99.5433H85.8556H85.8435ZM81.8962 101.407C81.8962 101.952 81.872 102.557 81.5087 102.908C81.2787 103.138 80.9638 103.271 80.6248 103.271C80.2858 103.271 79.971 103.138 79.7409 102.908C79.3898 102.557 79.3413 101.952 79.3413 101.407C79.3413 100.863 79.3777 100.257 79.7409 99.9064C79.971 99.6765 80.2737 99.5554 80.6248 99.5554C80.9759 99.5554 81.2908 99.6886 81.5087 99.9064C81.8599 100.257 81.8962 100.863 81.8962 101.407ZM82.6106 101.407C82.6106 100.657 82.5137 99.9791 82.0173 99.4707C81.6782 99.1318 81.2181 98.9139 80.6248 98.9139C80.0315 98.9139 79.5593 99.1318 79.2324 99.4707C78.7359 99.967 78.6391 100.657 78.6391 101.407C78.6391 102.158 78.7359 102.836 79.2324 103.344C79.5714 103.683 80.0315 103.901 80.6248 103.901C81.2181 103.901 81.6782 103.683 82.0173 103.344C82.5137 102.836 82.6106 102.158 82.6106 101.407ZM75.9026 99.3738C75.5515 99.0228 75.2003 98.9139 74.7402 98.9139C74.1832 98.9139 73.6384 99.156 73.372 99.5675V98.9744H72.6576V103.84H73.372V100.851C73.372 100.112 73.8321 99.5433 74.5344 99.5433C74.9097 99.5433 75.1035 99.628 75.3698 99.8943L75.8905 99.3617L75.9026 99.3738ZM70.6355 101.068H68.0686C68.0928 100.681 68.1049 100.524 68.2139 100.257C68.3955 99.8096 68.8314 99.5312 69.352 99.5312C69.8727 99.5312 70.2965 99.8217 70.4902 100.257C70.5992 100.524 70.6234 100.669 70.6355 101.068ZM71.3499 101.601V101.274C71.3499 99.8338 70.6113 98.926 69.352 98.926C68.0928 98.926 67.3542 99.8459 67.3542 101.419C67.3542 103.138 68.1896 103.913 69.4731 103.913C70.2965 103.913 70.7566 103.659 71.253 103.162L70.7687 102.739C70.3812 103.126 70.0543 103.296 69.4973 103.296C68.565 103.296 68.0686 102.678 68.0686 101.613H71.3499V101.601ZM65.5864 101.419C65.5864 102.364 65.429 103.284 64.3756 103.284C63.3221 103.284 63.1526 102.376 63.1526 101.419C63.1526 100.463 63.3221 99.5554 64.3756 99.5554C65.429 99.5554 65.5864 100.463 65.5864 101.419ZM66.3008 101.419C66.3008 100.657 66.2039 99.8459 65.7075 99.3496C65.4532 99.0954 65.0173 98.926 64.5209 98.926C63.9881 98.926 63.5401 99.047 63.1405 99.5433V96.8077H62.4261V103.84H63.1405V103.259C63.5401 103.768 63.976 103.901 64.5209 103.901C65.0173 103.901 65.4532 103.731 65.7075 103.477C66.2039 102.981 66.3008 102.17 66.3008 101.407M60.9005 103.84V100.73C60.9005 100.173 60.7189 99.7128 60.3798 99.3738C60.0771 99.0833 59.6412 98.9139 59.1206 98.9139C58.4304 98.9139 57.8976 99.1923 57.5223 99.7249C57.2317 99.1923 56.6989 98.9139 56.033 98.9139C55.4881 98.9139 55.0038 99.1075 54.6648 99.507V98.9744H53.9504V103.84H54.6648V100.851C54.6648 100.003 55.1491 99.5554 55.8756 99.5554C56.6021 99.5554 57.0743 99.9912 57.0743 100.851V103.84H57.7887V100.766C57.7887 99.9912 58.2972 99.5554 58.9995 99.5554C59.7018 99.5554 60.1982 99.9912 60.1982 100.851V103.84H60.9126H60.9005ZM51.9162 101.068H49.3492C49.3734 100.681 49.3856 100.524 49.4945 100.257C49.6883 99.8096 50.1242 99.5312 50.6327 99.5312C51.1413 99.5312 51.5771 99.8217 51.7709 100.257C51.8798 100.524 51.9041 100.669 51.9162 101.068ZM52.6306 101.601V101.274C52.6306 99.8338 51.892 98.926 50.6327 98.926C49.3734 98.926 48.6348 99.8459 48.6348 101.419C48.6348 103.138 49.4703 103.913 50.7538 103.913C51.5893 103.913 52.0373 103.659 52.5337 103.162L52.0494 102.739C51.6619 103.126 51.335 103.296 50.778 103.296C49.8457 103.296 49.3492 102.678 49.3492 101.613H52.6306V101.601ZM47.194 103.84V96.8077H46.4433L44.2032 101.795L41.9148 96.8077H41.1641V103.84H41.9148V98.4902L43.8763 102.727H44.518L46.4433 98.4902V103.84H47.194Z" fill="#003726"/> <path d="M64.9066 83.7712H64.0469V84.6185H64.9066V83.7712Z" fill="#003726"/> <path d="M53.7422 89.9451H58.3433C58.985 89.9451 59.4573 89.7514 59.7236 89.3398C59.9658 89.7635 60.4986 89.9451 61.0434 89.9451H63.9131C65.0876 89.9451 65.6809 88.9888 65.6809 87.73C65.6809 86.0596 64.688 85.5996 63.792 85.5996C62.5812 85.5996 61.9152 86.568 61.9152 87.73C61.9152 88.4199 62.0847 88.9041 62.3753 89.2793H61.0434C60.8134 89.2793 60.0021 89.2793 60.0021 88.2989V87.4032C60.0021 85.6722 58.2585 85.3817 57.1083 85.7449C56.636 85.9022 56.1154 86.1564 55.4494 86.6285V82.9246H54.6987V89.2672H44.2614C44.0556 89.2672 43.2443 89.243 43.2201 88.2868V85.8901H42.4694V89.9087C42.4694 90.2356 42.4452 91.095 41.5734 91.095C41.4402 91.095 41.2949 91.095 41.198 91.0708L41.1133 91.676C41.2465 91.7002 41.4644 91.7002 41.6339 91.7002C42.9295 91.7002 43.2201 90.8287 43.2201 89.9208V89.6303C43.4865 89.8482 43.874 89.9329 44.2614 89.9329H53.7422V89.9451ZM59.2756 88.1657C59.2756 89.1462 58.8397 89.2793 58.0769 89.2793H55.4494V87.3426C56.1033 86.7737 56.5997 86.5195 57.1567 86.3622C58.1859 86.0717 59.2756 86.3138 59.2756 87.6331V88.1657ZM63.792 89.2793C62.9444 89.2793 62.6296 88.6136 62.6296 87.73C62.6296 86.5922 63.1987 86.2532 63.792 86.2532C64.3853 86.2532 64.9665 86.6043 64.9665 87.73C64.9665 88.7951 64.5427 89.2793 63.792 89.2793Z" fill="#003726"/> <path d="M63.5745 83.7712H62.7148V84.6185H63.5745V83.7712Z" fill="#003726"/> <path d="M72.4726 83.8201H71.625V84.6674H72.4726V83.8201Z" fill="#003726"/> <path d="M71.1566 83.8201H70.2969V84.6674H71.1566V83.8201Z" fill="#003726"/> <path d="M83.4561 89.9446H84.0615C84.7517 89.9446 85.2481 89.6662 85.5266 89.2305C85.7082 89.6904 86.2168 89.993 86.8585 89.993C87.5608 89.993 88.033 89.7267 88.2873 89.3031C88.4931 89.7146 88.9774 89.993 89.5829 89.993C90.3093 89.993 90.7695 89.7146 91.0358 89.2789C91.2417 89.7146 91.835 89.9446 92.3314 89.9446H93.0216C93.7118 89.9446 94.2082 89.6662 94.4867 89.2305C94.6683 89.6904 95.1769 89.993 95.8186 89.993C96.5451 89.993 97.0173 89.7146 97.2716 89.2789C97.4532 89.642 97.8407 89.9446 98.5672 89.9446H100.25V85.9018H99.4995V89.2789H98.5672C98.3371 89.2789 97.5259 89.3152 97.5259 88.129V86.1681H96.7752V88.2379C96.7752 88.8915 96.5209 89.3273 95.8307 89.3273C95.4311 89.3273 94.8015 89.2062 94.8015 88.3589V86.4586H94.0508V88.2137C94.0508 89.2547 93.288 89.2789 92.9005 89.2789H92.3435C92.1135 89.2789 91.3022 89.2789 91.3022 88.2984V85.9018H90.5515V88.2258C90.5515 88.8794 90.2972 89.3152 89.6071 89.3152C89.1954 89.3152 88.5779 89.1941 88.5779 88.3468V86.1439H87.8272V88.2137C87.8272 88.8673 87.5729 89.3031 86.8827 89.3031C86.471 89.3031 85.8535 89.182 85.8535 88.3347V86.4344H85.1028V88.1895C85.1028 89.2305 84.34 89.2547 83.9525 89.2547H73.8421C73.3215 89.2547 73.043 89.0005 73.043 88.371V85.575H71.1541C70.0644 85.575 69.2773 86.3738 69.2773 87.8506C69.2773 89.0126 69.9312 89.9204 71.1541 89.9204C71.8201 89.9204 72.2802 89.5936 72.5708 89.1699C72.7887 89.5573 73.1762 89.9204 73.7574 89.9204H83.4924L83.4561 89.9446ZM72.2923 87.899C72.2923 88.6252 71.8685 89.3031 71.1178 89.3031C70.5245 89.3031 69.9554 89.0126 69.9554 87.8748C69.9554 87.0033 70.2581 86.2649 71.1178 86.2649H72.2923V87.899Z" fill="#003726"/> <path d="M104.236 84.3772H103.546C103.279 84.3772 103.073 84.123 103.085 83.8446C103.085 83.6631 103.194 83.4936 103.449 83.4936C103.63 83.4936 103.751 83.5541 103.921 83.7115L104.175 83.4694C103.933 83.2273 103.739 83.1426 103.437 83.1426C103.11 83.1426 102.855 83.2999 102.734 83.5662C102.613 83.8204 102.65 84.123 102.831 84.3772H102.371V84.7282H104.212V84.3772H104.236Z" fill="#003726"/> <path d="M109.114 85.5988C107.891 85.5988 107.237 86.4945 107.237 87.7654V88.1649C107.237 88.6854 107.104 89.2301 106.414 89.2664H105.191V87.6565C105.191 85.9861 104.198 85.5867 103.314 85.5867C102.091 85.5867 101.474 86.4824 101.425 87.6323C101.365 89.1211 102.067 89.9321 103.411 89.9321H104.453C104.416 90.2226 104.331 90.4284 104.15 90.6463C103.932 90.9247 103.593 91.0578 103.133 91.0578C102.77 91.0578 102.612 91.0215 102.346 90.8762L102.007 91.4209C102.321 91.5783 102.588 91.6872 103.145 91.6872C103.787 91.6872 104.283 91.4936 104.634 91.1062C104.949 90.7673 105.106 90.3921 105.155 89.9321H106.608C106.935 89.9321 107.359 89.6779 107.637 89.2664C107.976 89.7263 108.497 89.9563 109.102 89.9563C110.204 89.9563 110.991 89.2422 110.991 87.7533C110.991 86.4824 110.325 85.5867 109.102 85.5867M104.465 89.2664H103.435C102.394 89.2664 102.104 88.5522 102.14 87.6686C102.176 86.5308 102.709 86.2403 103.314 86.2403C103.92 86.2403 104.477 86.5308 104.477 87.6565V89.2664H104.465ZM109.102 89.3027C108.242 89.3027 107.94 88.6491 107.94 87.7533C107.94 86.5187 108.509 86.2282 109.102 86.2282C109.695 86.2282 110.277 86.5187 110.277 87.7533C110.277 88.637 109.962 89.3027 109.102 89.3027Z" fill="#003726"/> <path d="M117.723 92.584H116.875V93.4313H117.723V92.584Z" fill="#003726"/> <path d="M119.071 92.584H118.211V93.4313H119.071V92.584Z" fill="#003726"/> <path d="M128.609 83.7712H127.762V84.6185H128.609V83.7712Z" fill="#003726"/> <path d="M128.172 85.6003C126.961 85.6003 126.295 86.5687 126.295 87.7307C126.295 88.4206 126.465 88.9048 126.755 89.28H121.682C120.931 89.28 120.06 88.6627 119.563 88.2996L119.164 88.8806C119.418 89.0259 119.805 89.28 119.963 89.3648L119.999 89.389C120.423 89.6432 120.496 89.8368 120.496 89.9942C120.52 90.9383 118.885 91.2652 117.844 91.2652C115.919 91.2652 115.204 90.4784 115.204 89.4858C115.204 89.1832 115.253 88.6627 115.713 87.9486L115.035 87.5975C114.938 87.7307 114.441 88.5901 114.441 89.5463C114.441 90.5026 114.938 91.9309 117.844 91.9309C119.805 91.9309 120.968 91.1925 121.125 90.2847C121.149 90.1879 121.125 90.0426 121.053 89.8974C121.198 89.9337 121.355 89.9579 121.501 89.9579H128.281C129.456 89.9579 130.049 89.0016 130.049 87.7428C130.049 86.0724 129.056 85.6124 128.16 85.6124M128.16 89.2921C127.312 89.2921 126.998 88.6264 126.998 87.7428C126.998 86.605 127.567 86.2661 128.16 86.2661C128.753 86.2661 129.335 86.6171 129.335 87.7428C129.335 88.808 128.911 89.2921 128.16 89.2921Z" fill="#003726"/> <path d="M151.348 83.7712H150.488V84.6185H151.348V83.7712Z" fill="#003726"/> <path d="M147.764 89.9442H152.366C153.007 89.9442 153.479 89.7505 153.746 89.339C153.988 89.7626 154.521 89.9442 155.066 89.9442H159.861V89.2785H158.093C157.56 89.2785 157.185 89.0727 156.955 88.5764C156.725 88.1044 156.591 87.1602 157.027 86.6397C157.269 86.3492 157.633 86.204 158.093 86.204C158.371 86.204 158.613 86.2524 158.795 86.3371C158.977 86.4219 159.17 86.5671 159.364 86.7608L159.848 86.3371C159.594 86.0829 159.328 85.8772 159.061 85.7682C158.807 85.6472 158.468 85.5867 158.069 85.5867C157.39 85.5867 156.846 85.7682 156.494 86.204C155.804 87.0392 155.974 88.5643 156.579 89.2664H155.041C154.811 89.2664 154 89.2664 154 88.2859V87.3902C154 85.6593 152.257 85.3688 151.106 85.7319C150.634 85.8893 150.113 86.1435 149.447 86.6155V85.8893H148.697V89.2664H137.472V87.6565C137.472 85.9861 136.48 85.5867 135.596 85.5867C134.373 85.5867 133.755 86.4824 133.707 87.6323C133.646 89.1211 134.348 89.9321 135.692 89.9321H136.734C136.697 90.2226 136.613 90.4284 136.431 90.6584C136.213 90.9368 135.874 91.0699 135.414 91.0699C135.051 91.0699 134.893 91.0336 134.627 90.8883L134.288 91.433C134.603 91.5904 134.869 91.6993 135.426 91.6993C136.056 91.6993 136.552 91.5057 136.915 91.1183C137.23 90.7794 137.388 90.4042 137.436 89.9442H147.74H147.764ZM136.77 89.2785H135.741C134.7 89.2785 134.409 88.5643 134.445 87.6807C134.482 86.5429 135.014 86.2524 135.62 86.2524C136.225 86.2524 136.782 86.5429 136.782 87.6686V89.2785H136.77ZM153.298 88.1649C153.298 89.1453 152.862 89.2785 152.099 89.2785H149.472V87.3297C150.126 86.7608 150.622 86.5066 151.179 86.3492C152.208 86.0587 153.31 86.3008 153.31 87.6202V88.1528L153.298 88.1649Z" fill="#003726"/> </g> <defs> <clipPath id="clip0_2601_7279"> <rect width="200.037" height="103.865" fill="white" transform="translate(0 0.155029)"/> </clipPath> </defs> </svg>