<svg xmlns="http://www.w3.org/2000/svg" width="181" height="41" fill="none" viewBox="0 0 181 41"><mask id="a" width="181" height="41" x="0" y="0" maskUnits="userSpaceOnUse" style="mask-type:luminance"><path fill="#fff" d="M180.04.954H.647v39.092H180.04z"/></mask><g mask="url(#a)"><path fill="#009482" d="M20.151 5.377h-.157c-.625.175-1.256-.16-1.975.545.16.176.36.294.564.357.521-.295 1.509-.139 1.568-.902"/></g><mask id="b" width="181" height="41" x="0" y="0" maskUnits="userSpaceOnUse" style="mask-type:luminance"><path fill="#fff" d="M180.04.954H.647v39.092H180.04z"/></mask><g mask="url(#b)"><path fill="#009482" d="M17.654 21.399c.546.43 1.303.568 1.967.529.095-.016-.33-.672-2.047-.96z"/></g><mask id="c" width="181" height="41" x="0" y="0" maskUnits="userSpaceOnUse" style="mask-type:luminance"><path fill="#fff" d="M180.04.954H.647v39.092H180.04z"/></mask><g mask="url(#c)"><path fill="#009482" d="m24.771 25.836-2.025-.595-.493-.91-.209-.121-.763-.234c-.544-.552-1.015-.935-1.565-1.06l-.497-.047-1.082.439c-.499.038-.58-.585-.58-.585-.03-.159-.012-.227-.053-.404-.112-.148-.33-.224-.688-.122.139-.33.249-.714.072-1.072-.4 0-.542.449-.807.667-.612-.172-1.024-.125-.852-.323.235-.155.12-1.483.327-1.405.583.092 1.596-.94 2.182.003.098.258.231.632.615.453-.018-.317.186-.823-.189-1.005-.315-.015 1.785-1.406 2.55-2.347.425-.253 1.01.5 1.309-.225l-.047-.281-.8-.52c-.077-.229 1.037-.398 1.115-.184-.033.368.54 1.033 1.164 1.051-.24-.637.299-1.553.08-1.855l-.613-.77-.053-.181.095-.517s.03-.355-.076-.46c-.261-.26-.66.435-.964.415 0 0 .11-.847-.563-.98-.35-.069-.726-.018-.765.392-.2.825-.504 1.726-1.248 2.192.303-.956-.76-1.316-1.047-2.074l.018-.16.817-1.024.187-.042.33.183.192.106.64.076.184-.157c-.759-.749.636-1.132.893-1.648l.644.628c.367.444-1.045.567-1.246.94 0 0 1.103 1.366 2.203.08l.453-.43c0-.45-.443-.825-.724-1.218-.343-.566-.12-1.271-.525-1.76-.972-.473-1.315-.233-1.315-.233s-.014.046-.014.064c-.032.205-.118.826.061 1.05.007.065.026.12-.054.214-.432.52-.524.54-.636.61-1.004-.607.445-1.237.305-1.902-.98-.468-1.253.11-1.253.11-.113.19.048 1.273-.138 1.36-.929.434-1.13-.115-1.162-.272.276-.237.903-.198.903-.689-.02-.419.04-.9-.368-1.096-.532.104-1.16-1.568-2.129-1.018-.08.332-.392.658-.271 1.03l.234.048.843-.179c.398.254-.227.533-.406.785-.462.49.425.764.607 1.098-.282.172-.704.156-1.007.156.585-.96-.51-1.28-1.025-1.937 0 0-.083-.093-.181.019-.272.306-1.047.386-1.231.165l-.44-.534h-.266c-.692.139-.725-.348-1.286-.241-.253.18-.332.084-.746.333-.37.2-.598-.128-.598-.128s-.667.405-1.28.934c-.616.53-.835.736-1.322 1.222-.299.304.514 1.033.48 1.342-.037.308-1.025.274-1.41.588l-.006.085c.888-.174.654.39 2.668-.835.359-.138 1.098-.371 1.285.162.186.35.37.714.488 1.094.473.772-.507 1.399.18 2.185.308.387.117 1.486-.303 1.854-.347.7.072 1.484.263 1.57.585.804.36 1.896.944 2.7.08.095.14.352.324.195 0-.471-.324-.86-.203-1.33.306.65 1.008 1.124.806 1.91 0 0-.252.295.201.386.441.334.616.908 1.79.795 0 0 .267.017.316.184.042.164.84 1.107 1.787 1.14 0 0 .158.08.19.537.028.46-.376.946-.77 1.253 0 0-.281.296.997 1.968.364.152.825.152 1.087.473.268.306-.49.913-.54 1.415-.018.215.36.495.339.712-.018.195-.061.357-.122.636-.149.681-.1 1.672-.116 1.86-.014.15-.187.445-.044.443.626.108.081.569.043.86.1.705.423 1.216 1.003 1.725l.303-.322c.104-.138-.058-.266-.303-.422.02-.336.485-.644.162-.98.365-.669.342-1.938 1.49-1.84.025-.335-.342-.57-.321-.865 0 0 .55.648 1.49-.482.142-.172.056-.838.056-.838.063-.495 1.446-.966 1.446-.966.501-.263 1.347-2.415.824-2.929z"/></g><mask id="d" width="181" height="41" x="0" y="0" maskUnits="userSpaceOnUse" style="mask-type:luminance"><path fill="#fff" d="M180.04.954H.647v39.092H180.04z"/></mask><g mask="url(#d)"><path fill="#009482" d="M20.175 7.512c.158.508 1.713.61 2.274.762l.2-.196c-.606-.78-1.325-1.078-2.364-1.347l-.091-.022c-.07.071-.136.321-.019.803"/></g><mask id="e" width="181" height="41" x="0" y="0" maskUnits="userSpaceOnUse" style="mask-type:luminance"><path fill="#fff" d="M180.04.954H.647v39.092H180.04z"/></mask><g mask="url(#e)"><path fill="#009482" d="m18.198 7.115.097.128a.45.45 0 0 0 .119.151l.007.01c.298.232.756-.116 1.17-.071.341-.174.259-.914.117-.94-.667-.088-.78-.2-1.773.236 0 0-.08.225.263.486"/></g><mask id="f" width="181" height="41" x="0" y="0" maskUnits="userSpaceOnUse" style="mask-type:luminance"><path fill="#fff" d="M180.04.954H.647v39.092H180.04z"/></mask><g mask="url(#f)"><path fill="#009482" d="M28.277 7.503c-.37-.733-.764.122-1.091-.145l-.482-1.847-1.283.308c-.587.481-1.361-.17-1.361-.17-.048-.02-.436-1.115-.446-1.292-.6.344-1.45 1.377-1.69 1.88-.324-.392-.583-1.02-1.247-.706v.078c.401.313.545 1.408 1.21.942.219.097.423.252.562.43-.124.1-.363.076-.443.197l.967.94c.75-.269.522-.94.844-1.374.464-.056.908-.216 1.371-.156.2.078.445.312.364.511l-.929-.042c-.22.178-.08.552-.12.747.181.217-.222.627.203.627 1.146.155.751 1.477.698 1.663-.267.58-.477 1.364-.578 2.059 0 0 .037 1.143.121 1.684 0 0 .54.2 1.082-.393l.234-.267a4 4 0 0 0 .621-.906c.21-.287.43-.363.526-.376 1.207.362 1.165-.408 1.704-.62.162.029.109-.551.054-.76-.037-.138.141-.29.264-.376.719-.381.9-.614.567-1.375-.328-.38-1.385-.46-1.723-1.26"/></g><mask id="g" width="181" height="41" x="0" y="0" maskUnits="userSpaceOnUse" style="mask-type:luminance"><path fill="#fff" d="M180.04.954H.647v39.092H180.04z"/></mask><g mask="url(#g)"><path fill="#009482" d="M51.331 27.085c.018.508-.202 1.056-.081 1.443.159.101.401.294.604.235l.72-1.989-.323-.315c-.46-.114-.397.687-.92.626"/></g><mask id="h" width="181" height="41" x="0" y="0" maskUnits="userSpaceOnUse" style="mask-type:luminance"><path fill="#fff" d="M180.04.954H.647v39.092H180.04z"/></mask><g mask="url(#h)"><path fill="#009482" d="M55.098 23.123h.12c.401-.095.223-.547.32-.82-.076-.119-.217-.099-.32-.154a2.8 2.8 0 0 0-.12.974"/></g><mask id="i" width="181" height="41" x="0" y="0" maskUnits="userSpaceOnUse" style="mask-type:luminance"><path fill="#fff" d="M180.04.954H.647v39.092H180.04z"/></mask><g mask="url(#i)"><path fill="#009482" d="M42.044 15.43c.082.024.342-.117.431-.15.16-.057.149.023.149.023l-.209.517.653-.277s.218-.07.319-.169c.1-.098.1-.171.115-.274-.363-.31-.58-.623-.66-1.053-.147-.406-.441-.326-.55.05-.068.204.201.35.268.645a.33.33 0 0 0-.16-.16c-.091-.035-.18-.05-.271.037-.113.2-.294.477-.253.621.029.094.084.166.168.19"/></g><mask id="j" width="181" height="41" x="0" y="0" maskUnits="userSpaceOnUse" style="mask-type:luminance"><path fill="#fff" d="M180.04.954H.647v39.092H180.04z"/></mask><g mask="url(#j)"><path fill="#009482" d="m41.498 11.975-.083-.194c-.58-.039-1.042.216-1.605.237.06.233.302.404.443.621.458-.037.94-.056 1.282-.273-.037-.115-.137-.271-.037-.39"/></g><mask id="k" width="181" height="41" x="0" y="0" maskUnits="userSpaceOnUse" style="mask-type:luminance"><path fill="#fff" d="M180.04.954H.647v39.092H180.04z"/></mask><g mask="url(#k)"><path fill="#009482" d="M50.405 9.712c-.021-.137-.14-.236-.2-.35-.402-.857.48-1.307.843-1.916a.54.54 0 0 0-.362-.349c-.302.254-.782.469-.84.897.058.568-.241 1.134-.362 1.642.319.136.6.076.92.076"/></g><mask id="l" width="181" height="41" x="0" y="0" maskUnits="userSpaceOnUse" style="mask-type:luminance"><path fill="#fff" d="M180.04.954H.647v39.092H180.04z"/></mask><g mask="url(#l)"><path fill="#009482" d="M58.827 22.537c.009.005.139.235.256.568.182.417.325.173.325-.188-.038-.469-.53-.477-.451-.945l.562.35c.218-.213.342-.468.523-.702.057-.507-.245-.88-.364-1.328.275-.166.646-.188.97-.25.33-.066.61-.167.917-.292 0 0 .337-.483.41-.692.07-.204.112-.874.112-.874a5 5 0 0 0-.084-.273q-.001-.004-.002-.003v-.002c-.257-.618-.805-1.02-.603-1.587.46-.136.412-.007.77.185.093.113.467.433.331.99.076.245.118.156.182.217 0 0 .356-.428.356-.704 0-.273-.549-.932-.549-.932.308-.184.418-.432.466-.7.074-.41.006-.871.298-1.213.239.275.3 1.115.841.743-.401-.799-.532-1.767-.908-2.167l-.031-.033h-.003c-.193-.188-.464-.305-.863-.299.02-.41.1-.782.24-1.13.522-.263-.762-.694-.288-1.09a1 1 0 0 0-.082-.086h-.643c-1.112-1.302.331-2.187-1.32-3.024-.26.292-.44-.211-.846-.072-.504.069-.745-.65-.805-.941l-.972-.362c-.164-.018-1.202-.274-1.635-.312-.721-.1-.945 1.23-1.64 1.203-1.08.075-.52 1.362-1.242 1.87l-1.004.08-.32 1.327-.882-.198-.08.59c-.564-.14-.745.427-1.163.623-.184-.117-.143-.407-.405-.392-.078.604-.383 1.115-1 1.33-.06-.138-.264-.098-.244-.274l.443-.39c-.383-.68-1.145-.977-1.887-1.055-.984.82-1.626 1.621-2.247 2.615-.065.403-.221.809-.164 1.212h.685c.223.154.223.443.52.507.664.176.381-.57.567-.86-.19-.285-.154-.568-.034-.84v-.004c.153-.336.436-.66.593-.952-.016.315-.147.63-.222.957v.002q-.05.18-.06.371c.324.094.665.135 1.048.115.092-.012.155.057.155.117-.78-.097-.92.801-1.283 1.25l-1.124.155c-.22-.098-.259-.486-.52-.466l-.082.66c-.19.089-.356.232-.52.384h-.002c-.227.206-.512.454-.8.476-.142.1-.343.295-.485.39.083.256.485.297.644.51.08.7-.687.418-1.109.531l-.016.094v1.207l1.326.04a6 6 0 0 1 .155-.562 4 4 0 0 1 .364-.763l.885-.16c.268.281.81.498.916.878.013.068.025.18.006.258.192-.029.353-.118.506-.216q.109-.071.218-.133c-.16-.529-.802-.685-.844-1.217.498.417.992.785 1.24 1.329.028.07.068.172.086.237.162.02.34-.04.44-.081l-.036-.135-.12-.449c.117-.116.298-.098.436-.158l.238.607.124.334.965.074c.443-.097.339.454.321.665-.864.72-1.585-.548-2.57-.039-.02.137.04.35-.041.428-.42-.192-.842-.526-1.32-.505l-.163-.623c-.883.074-1.826.486-2.727.389-.926.62-1.29.659-1.646 1.637l-.105 1.726.9 1.538 1.57.602.878-.35c.36.41 1.753-.02 1.169.938-.33.243 1.118 2.17.765 3.317.543.701.7 1.54 1.018 2.284l1.846-.356c.206-.502.505-1.05 1.028-1.5-.223-.762.483-1.13.884-1.637.261-.63-.32-1.056-.121-1.642.503-.934 2.29-2.173 1.725-2.73h-.252c-.367-.138-.91-.086-1.216-.042-.517-.997-1.906-1.845-1.661-2.81.66.802 1.252 1.592 1.75 2.417q.068.116.134.237c.088-.033 1.464-.496 2.37-1.6l-.525-.544-.88.23c-.264-.29-.463-.646-.52-.976.64.28 1.223.686 1.964.704.13.181.247.758.354.95.081.144.209.03.287.175.074.146.303.84.371.963.137.258.326.187.46.14.191-.514.391-1.003.689-1.45.126-.185.198-.308.553-.411.22.043.193-.427.378-.562.098-.037.282-.098.36.04.382.33.272.386.447.9.162.037.248.36.557.234l.537.886c.06.144.14.215.297.497"/></g><mask id="m" width="181" height="41" x="0" y="0" maskUnits="userSpaceOnUse" style="mask-type:luminance"><path fill="#fff" d="M180.04.954H.647v39.092H180.04z"/></mask><g mask="url(#m)"><path fill="#009482" d="M63.413 28.209c.058-.136.012-.249-.001-.386-.013-.128.019-.284-.011-.412-.028-.128-.079-.17-.102-.309-.028-.124.006-.267-.008-.393-.036.01-.083-.013-.119-.006-.022-.217.02-.549-.091-.735-.252.028.018-.794-.079-.934-.041-.01-.152.152-.193.316a2.7 2.7 0 0 0-.196.5c-.043.182-.206.442-.214.457-.072-.006-.334-.242-.28-.447.028-.112.174-.376.044-.485-.222-.193-.735.124-.825.318.08.08.095.197.116.298-.147.013-.415-.013-.487-.101-.234.165-.243.22-.47.394-.12.095-.227.214-.362.27-.135.054-.254.041-.38.113-.355.199-.256.51-.277.77-.024.26-.163.613-.235.767-.064.15-.12.282.042.415.175.156.753-.246 1.024-.382.147-.077.316-.11.465-.117.18-.002.275.01.37.12.12.133.231.468.231.468q.094-.057.18-.098c.013.27-.076.612.203.75.218.11.581.059.831.05.022-.163-.004-.264.082-.409.053-.1.154-.18.227-.257.163-.169.414-.311.515-.535"/></g><mask id="n" width="181" height="41" x="0" y="0" maskUnits="userSpaceOnUse" style="mask-type:luminance"><path fill="#fff" d="M180.04.954H.647v39.092H180.04z"/></mask><g mask="url(#n)"><path fill="#009482" d="M63.479 29.831c-.214.105-.572.063-.653.358.183.26.25-.12.55-.144l.287-.037c.025-.083.316-.406.262-.572-.13.033-.428.12-.446.395"/></g><mask id="o" width="181" height="41" x="0" y="0" maskUnits="userSpaceOnUse" style="mask-type:luminance"><path fill="#fff" d="M180.04.954H.647v39.092H180.04z"/></mask><g mask="url(#o)"><path fill="#009482" d="M64.376 29.056c-.022-.066.01-.38-.135-.339-.156.044.04.432-.216.442-.073.025-.375.057-.1.136.276.078.225.34.37.218.243-.205.39-.13.335-.312a3 3 0 0 1-.254-.145"/></g><mask id="p" width="181" height="41" x="0" y="0" maskUnits="userSpaceOnUse" style="mask-type:luminance"><path fill="#fff" d="M180.04.954H.647v39.092H180.04z"/></mask><g mask="url(#p)"><path fill="#009482" d="M58.43 22.927v-.023z"/></g><mask id="q" width="181" height="41" x="0" y="0" maskUnits="userSpaceOnUse" style="mask-type:luminance"><path fill="#fff" d="M180.04.954H.647v39.092H180.04z"/></mask><g mask="url(#q)"><path fill="#009482" d="M59.511 24.458a.43.43 0 0 0 .266.09c.081.003.977.112 1.005.034-.605-.014-1.098-.3-1.18-.334a.87.87 0 0 0-.142-.429 9 9 0 0 0-.346-.39c-.208-.2-.248-.273-.335-.39-.063-.09-.32-.414-.349-.114-.007.227.194.324.407.677.063.08.581.79.674.856"/></g><mask id="r" width="181" height="41" x="0" y="0" maskUnits="userSpaceOnUse" style="mask-type:luminance"><path fill="#fff" d="M180.04.954H.647v39.092H180.04z"/></mask><g mask="url(#r)"><path fill="#009482" d="M60.782 22.891c-.068-.058-.205.026-.287.081-.36.3-.448.393-.448.393-.18.124-.09.246-.08.402.024.332.015.483.548.399 0-.315.19-.67.361-.845-.207-.175.025-.293-.094-.43"/></g><mask id="s" width="181" height="41" x="0" y="0" maskUnits="userSpaceOnUse" style="mask-type:luminance"><path fill="#fff" d="M180.04.954H.647v39.092H180.04z"/></mask><g mask="url(#s)"><path fill="#009482" d="M62.038 24.115c.025.051.267.086.284.146.11.334.062.769.32.714.039-.066.104-.122.094-.17.348-.063.54.448.837.358-.01-.144-.157-.278-.208-.404a1.1 1.1 0 0 0-.223-.381c-.08-.099-.42-.166-.537-.224-.112-.06-.013-.199-.141-.257l-.277.053c.005.071-.193.082-.15.165"/></g><mask id="t" width="181" height="41" x="0" y="0" maskUnits="userSpaceOnUse" style="mask-type:luminance"><path fill="#fff" d="M180.04.954H.647v39.092H180.04z"/></mask><g mask="url(#t)"><path fill="#009482" d="M61.29 23.624c.02-.077-.076-.097-.134-.17-.117.018-.119.07-.191.11 0 0-.001.034-.044.114-.063.115-.172.105-.149.369.014.142.11.203.23.264 0 0 .094-.101.084-.258-.061-.116-.087-.272-.067-.342.151-.112.192-.044.271-.087"/></g><mask id="u" width="181" height="41" x="0" y="0" maskUnits="userSpaceOnUse" style="mask-type:luminance"><path fill="#fff" d="M180.04.954H.647v39.092H180.04z"/></mask><g mask="url(#u)"><path fill="#009482" d="M61.71 21.756c.037-.073-.038-.287-.038-.287s-.3-.79-.38-.824c-.077-.038-.233.012-.243.094-.01.075.178.551.178.551s-.013.343.049.401c.058.057.299.27.299.27s.097-.133.135-.205"/></g><mask id="v" width="181" height="41" x="0" y="0" maskUnits="userSpaceOnUse" style="mask-type:luminance"><path fill="#fff" d="M180.04.954H.647v39.092H180.04z"/></mask><g mask="url(#v)"><path fill="#009482" d="M61.672 22.873s.122-.114.172-.18c.051-.064.136-.312.136-.312s-.058-.358-.28-.232c-.22.125-.317.331-.27.4.048.066.242.324.242.324"/></g><mask id="w" width="181" height="41" x="0" y="0" maskUnits="userSpaceOnUse" style="mask-type:luminance"><path fill="#fff" d="M180.04.954H.647v39.092H180.04z"/></mask><g mask="url(#w)"><path fill="#009482" d="M61.683 29.64c-.138.08-.198.206-.169.248.029.04.15.198.15.198s.074-.069.106-.108c.032-.043.087-.196.087-.196s-.037-.222-.174-.142"/></g><mask id="x" width="181" height="41" x="0" y="0" maskUnits="userSpaceOnUse" style="mask-type:luminance"><path fill="#fff" d="M180.04.954H.647v39.092H180.04z"/></mask><g mask="url(#x)"><path fill="#009482" d="M64.708 15.674c-.076-.132-.202-.215-.303-.322a.1.1 0 0 0-.017.024c-.044.08-.132.233-.136.323-.005.141.128.162.147.269.048.238-.4.547-.593.679-.322.217-.381.177-.424.586-.017.148-.135.832.282.527.288-.207.057-.541.11-.763l.196-.146c.215-.055.307.108.274.286a.5.5 0 0 0 .203-.041c.095-.044.301-.458.343-.563.084-.25.055-.63-.082-.859"/></g><mask id="y" width="181" height="41" x="0" y="0" maskUnits="userSpaceOnUse" style="mask-type:luminance"><path fill="#fff" d="M180.04.954H.647v39.092H180.04z"/></mask><g mask="url(#y)"><path fill="#004A97" d="m147.378 5.676-8.453 23.095-6.428-23.076h-6.6l1.058 3.632-7.09 19.444-6.428-23.076h-6.6l9.08 30.839h4.333l8.245-22.018 6.483 22.018h4.333L151.16 5.676z"/></g><mask id="z" width="181" height="41" x="0" y="0" maskUnits="userSpaceOnUse" style="mask-type:luminance"><path fill="#fff" d="M180.04.954H.647v39.092H180.04z"/></mask><g mask="url(#z)"><path fill="#004A97" d="M163.658 5.616q-3.353.964-5.883 3.074-2.526 2.088-4.047 5.44c-1 2.23-1.51 4.953-1.51 8.186 0 2.196.387 4.224 1.162 6.097a13.6 13.6 0 0 0 3.363 4.866c1.471 1.367 3.265 2.43 5.398 3.181q3.179 1.134 7.265 1.136 5.682-.002 9.408-1.838l.953-3.668-.237-.14c-.48.483-1.034.93-1.665 1.333-.69.45-1.422.823-2.198 1.127a15 15 0 0 1-2.365.723 11.3 11.3 0 0 1-2.385.269c-1.391 0-2.779-.263-4.15-.775-1.384-.514-2.618-1.332-3.708-2.438q-1.629-1.681-2.639-4.284c-.678-1.752-1.007-3.853-1.007-6.294 0-2.533.323-4.716.984-6.56.657-1.83 1.512-3.35 2.588-4.536 1.062-1.19 2.259-2.085 3.575-2.66 1.314-.584 2.623-.877 3.936-.877 4.4-.018 6.33 2.255 7.279 4.37h.76l1.505-4.56a12 12 0 0 0-1.716-.757 22 22 0 0 0-2.406-.72 27 27 0 0 0-2.626-.487 18 18 0 0 0-2.561-.189q-3.705.002-7.073.98"/></g><mask id="A" width="181" height="41" x="0" y="0" maskUnits="userSpaceOnUse" style="mask-type:luminance"><path fill="#fff" d="M180.04.954H.647v39.092H180.04z"/></mask><g mask="url(#A)"><path fill="#004A97" d="m102.154 22.747.021-17.08h-3.372v18.68c-.003 3.285-1.391 10.681-8.752 10.681-6.121 0-6.92-5.838-6.92-13.438l.018-15.922h-6.362l.012 20.088c0 5.749 3.859 11.757 11.884 11.757 7.076 0 13.471-2.403 13.471-14.764"/></g><mask id="B" width="181" height="41" x="0" y="0" maskUnits="userSpaceOnUse" style="mask-type:luminance"><path fill="#fff" d="M180.04.954H.647v39.092H180.04z"/></mask><g mask="url(#B)"><path fill="#004A97" d="M50.432.955c-10.866 0-19.675 8.75-19.675 19.545 0 3.248.802 6.308 2.213 9.004.54-.745 1.01-1.543 1.41-2.379a17.1 17.1 0 0 1-1.34-6.656c0-9.54 7.786-17.276 17.392-17.276 9.604 0 17.39 7.735 17.39 17.276 0 9.543-7.786 17.278-17.39 17.278-4.83 0-9.193-1.963-12.344-5.121q-.661.953-1.42 1.826a19.67 19.67 0 0 0 13.764 5.594c10.865 0 19.674-8.75 19.674-19.546S61.296.955 50.433.955"/></g><mask id="C" width="181" height="41" x="0" y="0" maskUnits="userSpaceOnUse" style="mask-type:luminance"><path fill="#fff" d="M180.04.954H.647v39.092H180.04z"/></mask><g mask="url(#C)"><path fill="#004A97" d="M37.781 11.493a15.5 15.5 0 0 0-1.395 2.351 17.1 17.1 0 0 1 1.327 6.626c0 9.542-7.786 17.277-17.391 17.277S2.93 30.012 2.93 20.47 10.717 3.194 20.32 3.194c4.85 0 9.228 1.977 12.382 5.156q.649-.933 1.392-1.793A19.66 19.66 0 0 0 20.323.955C9.456.955.647 9.705.647 20.5c0 10.794 8.81 19.545 19.675 19.545S39.997 31.294 39.997 20.5c0-3.25-.802-6.312-2.216-9.008"/></g></svg>